<?xml version="1.0" encoding="utf-8"?>
<!-- Generator: Adobe Illustrator 28.1.0, SVG Export Plug-In . SVG Version: 6.00 Build 0)  -->
<svg version="1.1" id="Layer_1" xmlns="http://www.w3.org/2000/svg" xmlns:xlink="http://www.w3.org/1999/xlink" x="0px" y="0px"
	 viewBox="0 0 30 30" style="enable-background:new 0 0 30 30;" xml:space="preserve">
<style type="text/css">
	.st0{fill:none;stroke:#FFFFFF;stroke-linecap:round;stroke-linejoin:round;}
</style>
<path class="st0" d="M9.8,2.5c3.3-1.4,7-1.4,10.3,0s5.9,4,7.3,7.3c1.4,3.3,1.4,7,0,10.3s-4,5.9-7.3,7.3s-7,1.4-10.3,0
	s-5.9-4-7.3-7.3s-1.4-7,0-10.3S6.5,3.9,9.8,2.5z"/>
<path class="st0" d="M15,13.2c-1,0-1.8,0.8-1.8,1.8s0.8,1.8,1.8,1.8s1.8-0.8,1.8-1.8S16,13.2,15,13.2z"/>
<path class="st0" d="M19.1,9.7l-3,3.9"/>
<path class="st0" d="M23.5,19.8l-6.9-3.9"/>
<path class="st0" d="M15,5.3C15,5.3,15.1,5.3,15,5.3l0,1.1c0,0,0,0,0,0V5.3z"/>
<path class="st0" d="M10.2,6.5C10.2,6.5,10.2,6.5,10.2,6.5l0.6,0.9c0,0,0,0,0,0L10.2,6.5L10.2,6.5z"/>
<path class="st0" d="M6.6,10C6.6,10,6.6,10,6.6,10l1,0.5c0,0,0,0,0,0L6.6,10L6.6,10z"/>
<path class="st0" d="M5.3,14.9C5.3,14.9,5.3,14.8,5.3,14.9l1.1,0c0,0,0,0,0,0H5.3z"/>
<path class="st0" d="M6.5,19.8C6.5,19.8,6.5,19.8,6.5,19.8l0.9-0.6c0,0,0,0,0,0L6.5,19.8L6.5,19.8z"/>
<path class="st0" d="M10.1,23.4C10.1,23.4,10.1,23.4,10.1,23.4l0.5-1c0,0,0,0,0,0L10.1,23.4L10.1,23.4z"/>
<path class="st0" d="M15.1,24.7C15.1,24.7,15,24.7,15.1,24.7l0-1.1c0,0,0,0,0,0V24.7z"/>
<path class="st0" d="M20,23.4C20,23.4,20,23.4,20,23.4l-0.6-0.9c0,0,0,0,0,0L20,23.4L20,23.4z"/>
<path class="st0" d="M23.5,19.7C23.5,19.7,23.5,19.8,23.5,19.7l-1-0.5c0,0,0,0,0,0L23.5,19.7L23.5,19.7z"/>
<path class="st0" d="M24.7,14.8C24.7,14.8,24.7,14.9,24.7,14.8l-1.1,0c0,0,0,0,0,0H24.7z"/>
<path class="st0" d="M23.4,10.1C23.4,10.1,23.4,10,23.4,10.1l-1,0.5c0,0,0,0,0,0L23.4,10.1L23.4,10.1z"/>
<path class="st0" d="M19.3,7.5l0.5-1c0,0,0,0,0,0L19.3,7.5C19.3,7.5,19.3,7.5,19.3,7.5L19.3,7.5z"/>
</svg>
