<?xml version="1.0" encoding="UTF-8"?>
<svg id="Layer_1" data-name="Layer 1" xmlns="http://www.w3.org/2000/svg" viewBox="0 0 30 30">
  <defs>
    <style>
      .cls-1 {
        fill: none;
        stroke: #fff;
        stroke-linecap: round;
        stroke-linejoin: round;
      }
    </style>
  </defs>
  <path class="cls-1" d="M22.23,4.14c-2.88-1.19-6.12-1.19-9,0-2.88,1.19-5.17,3.48-6.36,6.36-1.19,2.88-1.19,6.12,0,9,1.19,2.88,3.48,5.17,6.36,6.36,2.88,1.19,6.12,1.19,9,0,.12-.05.24-.1.36-.16.81-.37.46-1.55-.4-1.77-.4-.11-.8-.24-1.18-.4-2.26-.94-4.06-2.74-5-5s-.94-4.81,0-7.07c.94-2.26,2.74-4.06,5-5,.39-.16.78-.29,1.18-.4.86-.23,1.2-1.41.4-1.77-.12-.05-.24-.11-.36-.16Z"/>
</svg>