<?xml version="1.0" encoding="UTF-8"?>
<svg id="Layer_1" data-name="Layer 1" xmlns="http://www.w3.org/2000/svg" viewBox="0 0 64 64">
  <defs>
    <style>
      .cls-1 {
        fill: none;
        stroke: #fff;
        stroke-linecap: round;
        stroke-linejoin: round;
        stroke-width: 4px;
      }
    </style>
  </defs>
  <path class="cls-1" d="M2,35.22c3.07,0,6.14-1.17,8.49-3.51l2.51-2.51c.55-.55,1.45-.55,2,0l2.51,2.51c4.69,4.69,12.28,4.69,16.97,0l2.51-2.51c.55-.55,1.45-.55,2,0l2.51,2.51c2.34,2.34,5.41,3.51,8.49,3.51"/>
  <path class="cls-1" d="M14,19.49c3.07,0,6.14-1.17,8.49-3.51l2.51-2.51c.55-.55,1.45-.55,2,0l2.51,2.51c4.69,4.69,12.28,4.69,16.97,0l2.51-2.51c.55-.55,1.45-.55,2,0l2.51,2.51c2.34,2.34,5.41,3.51,8.49,3.51"/>
  <path class="cls-1" d="M14,50.95c3.07,0,6.14-1.17,8.49-3.51l2.51-2.51c.55-.55,1.45-.55,2,0l2.51,2.51c4.69,4.69,12.28,4.69,16.97,0l2.51-2.51c.55-.55,1.45-.55,2,0l2.51,2.51c2.34,2.34,5.41,3.51,8.49,3.51"/>
</svg>