<?xml version="1.0" encoding="UTF-8"?>
<svg id="Layer_1" data-name="Layer 1" xmlns="http://www.w3.org/2000/svg" width="14" height="14" viewBox="0 0 14 14">
  <path d="M7,.81081c.16216,0,.32432.05405.43243.18919l4.67568,4.64865c.13514.13514.08108.24324.05405.32432-.02703.05405-.10811.18919-.27027.18919h-2.51351v7.02703h-4.86486v-7.02703h-2.4054c-.16216,0-.24324-.10811-.27027-.18919-.02703-.05405-.05405-.21622.05405-.32432L6.56757,1c.10811-.13514.27027-.18919.43243-.18919M7,0c-.35135,0-.72973.13514-1,.40541L1.32432,5.08108c-.7027.7027-.21622,1.89189.78378,1.89189h1.59459v6.48649c0,.2973.24324.54054.54054.54054h5.40541c.2973,0,.54054-.24324.54054-.54054v-6.48649h1.7027c1,0,1.48649-1.18919.78378-1.89189L8,.40541C7.72973.13514,7.35135,0,7,0Z" fill="#59c4ef" stroke-width="0"/>
</svg>