<?xml version="1.0" encoding="UTF-8"?>
<svg id="Layer_1" data-name="Layer 1" xmlns="http://www.w3.org/2000/svg" viewBox="0 0 31 31">
  <defs>
    <style>
      .cls-1 {
        fill: none;
        stroke: #fff;
        stroke-linecap: round;
        stroke-linejoin: round;
      }
    </style>
  </defs>
  <path class="cls-1" d="M2,8.65c.58,0,1.16-.17,1.66-.5l1.17-.78c1.01-.67,2.32-.67,3.33,0l1.17.78c1.01.67,2.32.67,3.33,0l1.17-.78c1.01-.67,2.32-.67,3.33,0l1.17.78c1.01.67,2.32.67,3.33,0l1.17-.78c1.01-.67,2.32-.67,3.33,0l1.17.78c.5.34,1.08.5,1.66.5"/>
  <path class="cls-1" d="M2,13.81c.58,0,1.16-.17,1.66-.5l1.17-.78c1.01-.67,2.32-.67,3.33,0l1.17.78c1.01.67,2.32.67,3.33,0l1.17-.78c1.01-.67,2.32-.67,3.33,0l1.17.78c1.01.67,2.32.67,3.33,0l1.17-.78c1.01-.67,2.32-.67,3.33,0l1.17.78c.5.34,1.08.5,1.66.5"/>
  <path class="cls-1" d="M2,18.98c.58,0,1.16-.17,1.66-.5l1.17-.78c1.01-.67,2.32-.67,3.33,0l1.17.78c1.01.67,2.32.67,3.33,0l1.17-.78c1.01-.67,2.32-.67,3.33,0l1.17.78c1.01.67,2.32.67,3.33,0l1.17-.78c1.01-.67,2.32-.67,3.33,0l1.17.78c.5.34,1.08.5,1.66.5"/>
  <path class="cls-1" d="M2,24.14c.58,0,1.16-.17,1.66-.5l1.17-.78c1.01-.67,2.32-.67,3.33,0l1.17.78c1.01.67,2.32.67,3.33,0l1.17-.78c1.01-.67,2.32-.67,3.33,0l1.17.78c1.01.67,2.32.67,3.33,0l1.17-.78c1.01-.67,2.32-.67,3.33,0l1.17.78c.5.34,1.08.5,1.66.5"/>
</svg>