<?xml version="1.0" encoding="UTF-8"?>
<svg id="Layer_1" data-name="Layer 1" xmlns="http://www.w3.org/2000/svg" width="20" height="20" viewBox="0 0 20 20">
  <path d="M10,1.1583c.23166,0,.46332.07722.61776.27027l6.67954,6.64093c.19305.19305.11583.34749.07722.46332-.03861.07722-.15444.27027-.3861.27027h-3.59073v10.03861h-6.94981v-10.03861h-3.43629c-.23166,0-.34749-.15444-.3861-.27027-.03861-.07722-.07722-.30888.07722-.46332L9.38224,1.42857c.15444-.19305.3861-.27027.61776-.27027M10,0c-.50193,0-1.04247.19305-1.42857.57915L1.89189,7.25869c-1.00386,1.00386-.30888,2.7027,1.11969,2.7027h2.27799v9.26641c0,.42471.34749.7722.7722.7722h7.72201c.42471,0,.7722-.34749.7722-.7722v-9.26641h2.43243c1.42857,0,2.12355-1.69884,1.11969-2.7027L11.42857.57915C11.04247.19305,10.50193,0,10,0Z" fill="#59c4ef" stroke-width="0"/>
</svg>