<?xml version="1.0" encoding="UTF-8"?>
<svg id="Layer_1" data-name="Layer 1" xmlns="http://www.w3.org/2000/svg" viewBox="0 0 30 30">
  <defs>
    <style>
      .cls-1 {
        fill: none;
        stroke: #fff;
        stroke-linecap: round;
        stroke-linejoin: round;
      }
    </style>
  </defs>
  <path class="cls-1" d="M10.98,2.76c-1.18.59-1.93,1.8-1.93,3.12v10.33c0,.28-.14.55-.36.73-1.38,1.14-2.19,2.84-2.19,4.66,0,2.16,1.15,4.15,3.02,5.23,1.87,1.08,4.17,1.08,6.04,0,1.87-1.08,3.02-3.07,3.02-5.23,0-1.82-.82-3.52-2.19-4.66-.22-.18-.36-.44-.36-.73V5.87c0-1.32-.75-2.53-1.93-3.12-.98-.49-2.14-.49-3.12,0Z"/>
  <path class="cls-1" d="M20.01,4.11c0-.96.78-1.74,1.74-1.74s1.74.78,1.74,1.74-.78,1.74-1.74,1.74-1.74-.78-1.74-1.74Z"/>
</svg>