<?xml version="1.0" encoding="UTF-8"?>
<svg id="Layer_1" data-name="Layer 1" xmlns="http://www.w3.org/2000/svg" width="20" height="20" viewBox="0 0 20 20">
  <path d="M10,18.8417c-.23166,0-.46332-.07722-.61776-.27027l-6.67954-6.64093c-.19305-.19305-.11583-.34749-.07722-.46332.03861-.07722.15444-.27027.3861-.27027h3.59073V1.1583h6.94981v10.03861h3.43629c.23166,0,.34749.15444.3861.27027.03861.07722.07722.30888-.07722.46332l-6.67954,6.64093c-.15444.19305-.3861.27027-.61776.27027M10,20c.50193,0,1.04247-.19305,1.42857-.57915l6.67954-6.67954c1.00386-1.00386.30888-2.7027-1.11969-2.7027h-2.27799V.7722c0-.42471-.34749-.7722-.7722-.7722h-7.72201c-.42471,0-.7722.34749-.7722.7722v9.26641h-2.43243c-1.42857,0-2.12355,1.69884-1.11969,2.7027l6.67954,6.67954c.3861.3861.92664.57915,1.42857.57915Z" fill="#59c4ef" stroke-width="0"/>
</svg>