<?xml version="1.0" encoding="UTF-8"?>
<svg id="Layer_1" data-name="Layer 1" xmlns="http://www.w3.org/2000/svg" viewBox="0 0 54 54">
  <defs>
    <style>
      .cls-1 {
        fill: none;
        stroke: #fff;
        stroke-linecap: round;
        stroke-linejoin: round;
        stroke-width: 3px;
      }
    </style>
  </defs>
  <path class="cls-1" d="M1.59,26h39.82c6.08,0,11,4.92,11,11s-4.92,11-11,11h-.36c-5.88,0-10.64-4.76-10.64-10.64v-.37"/>
  <path class="cls-1" d="M10.59,20h21.41c3.87,0,7-3.13,7-7s-3.13-7-7-7h-.23c-3.74,0-6.77,3.03-6.77,6.77v.24"/>
  <path class="cls-1" d="M5.59,32h12.41c3.87,0,7,3.13,7,7s-3.13,7-7,7h-.23c-3.74,0-6.77-3.03-6.77-6.77v-.24"/>
</svg>