<?xml version="1.0" encoding="utf-8"?>
<!-- Generator: Adobe Illustrator 28.1.0, SVG Export Plug-In . SVG Version: 6.00 Build 0)  -->
<svg version="1.1" id="Layer_1" xmlns="http://www.w3.org/2000/svg" xmlns:xlink="http://www.w3.org/1999/xlink" x="0px" y="0px"
	 viewBox="0 0 80 80" style="enable-background:new 0 0 80 80;" xml:space="preserve">
<style type="text/css">
	.st0{fill:none;stroke:#C2CCDE;stroke-linecap:round;stroke-linejoin:round;}
</style>
<path class="st0" d="M75.8,16.1c-6.3-2.6-13.5-2.6-19.8,0c-6.3,2.6-11.4,7.7-14,14c-2.6,6.3-2.6,13.5,0,19.8c2.6,6.3,7.7,11.4,14,14
	c6.3,2.6,13.5,2.6,19.8,0c0.3-0.1,0.5-0.2,0.8-0.3c1.8-0.8,1-3.4-0.9-3.9c-0.9-0.2-1.8-0.5-2.6-0.9c-5-2.1-8.9-6-11-11
	s-2.1-10.6,0-15.6s6-8.9,11-11c0.9-0.4,1.7-0.6,2.6-0.9c1.9-0.5,2.6-3.1,0.9-3.9C76.3,16.3,76,16.2,75.8,16.1z"/>
</svg>
