<?xml version="1.0" encoding="utf-8"?>
<svg version="1.1" id="Layer_1" xmlns="http://www.w3.org/2000/svg" xmlns:xlink="http://www.w3.org/1999/xlink" x="0px" y="0px"
	 viewBox="0 0 80 80" style="enable-background:new 0 0 80 80;" xml:space="preserve">
<style type="text/css">
	.st0{fill:none;stroke:#C2CCDE;stroke-linecap:round;stroke-linejoin:round;}
</style>
<path class="st0" d="M46.3,11.9c-2.7,1.4-4.4,4.1-4.4,7.2v23.7c0,0.6-0.3,1.3-0.8,1.7c-3.2,2.6-5,6.5-5,10.7c0,5,2.6,9.5,6.9,12
	c4.3,2.5,9.6,2.5,13.9,0c4.3-2.5,6.9-7,6.9-12c0-4.2-1.9-8.1-5-10.7c-0.5-0.4-0.8-1-0.8-1.7V19.1c0-3-1.7-5.8-4.4-7.2
	C51.2,10.8,48.5,10.8,46.3,11.9z"/>
<path class="st0" d="M67,15c0-2.2,1.8-4,4-4s4,1.8,4,4c0,2.2-1.8,4-4,4S67,17.3,67,15z"/>
</svg>
