<?xml version="1.0" encoding="UTF-8"?>
<svg id="Layer_1" data-name="Layer 1" xmlns="http://www.w3.org/2000/svg" width="14" height="14" viewBox="0 0 14 14">
  <path d="M7,13.18919c-.16216,0-.32432-.05405-.43243-.18919L1.89189,8.35135c-.13514-.13514-.08108-.24324-.05405-.32432.02703-.05405.10811-.18919.27027-.18919h2.51351V.81081h4.86486v7.02703h2.4054c.16216,0,.24324.10811.27027.18919.02703.05405.05405.21622-.05405.32432l-4.67567,4.64865c-.10811.13514-.27027.18919-.43243.18919M7,14c.35135,0,.72973-.13514,1-.40541l4.67568-4.67568c.7027-.7027.21622-1.89189-.78378-1.89189h-1.59459V.54054c0-.2973-.24324-.54054-.54054-.54054h-5.40541c-.2973,0-.54054.24324-.54054.54054v6.48649h-1.7027c-1,0-1.48649,1.18919-.78378,1.89189l4.67568,4.67568c.27027.27027.64865.40541,1,.40541Z" fill="#59c4ef" stroke-width="0"/>
</svg>